# xmcd
#
# Track frame offsets: 
#        150
#        13319
#        32469
#        47047
#        61746
#        71951
#        86268
#        103033
#        125327
#        134519
#        143920
#        156644
#        175923
#        194428
#        206925
#        216565
#        227518
#        238928
#        252003
#        274885
#
# Disc length: 3994 seconds
#
# Revision: 0
# Processed by: cddbd v1.5.2PL0 Copyright (c) Steve Scherf et al.
# Submitted via: ExactAudioCopy v1.1
#
DISCID=350f9814
DTITLE=Various Artist - Radio 2 - 100 Kerstklassiekers - CD 2
DYEAR=2008
DGENRE=Chorus
TTITLE0=Jona Lewie - Stop The Cavalry
TTITLE1=Freiheit With The London Symphony Orchestra - Keeping The Drea
TTITLE1=m Alive
TTITLE2=Dolly Parton - I'll Be Home For Christmas
TTITLE3=Dana - It's Gonna Be A Cold Cold Christmas
TTITLE4=Johnny Mathis - It's Beginning To Look A Lot Like Christmas
TTITLE5=Cyndi Lauper - December Child
TTITLE6=Showaddywaddy - Christmas Tears Will Fall
TTITLE7=Simone Hines - God Bless The Dreamer
TTITLE8=Lynn Anderson - Rockin' Around The Christmas Tree
TTITLE9=Percy Faith And His Orchestra - Joy To The World
TTITLE10=Tony Bennett - Snowfall
TTITLE11=Roger Whittaker - Hallelujah, It's Christmas
TTITLE12=Nilsson - Remember (Christmas)
TTITLE13=Jim Reeves - An Old Christmas Card
TTITLE14=Art Garfunkel - O Come All Ye Faithful
TTITLE15=Connie Francis - Baby's First Christmas
TTITLE16=Jackson 5 - Rudolph The Red-Nosed Reindeer
TTITLE17=Macy Gray - Winter Wonderland
TTITLE18=Luther Vandross - Every Year, Every Christmas
TTITLE19=Frankie Goes To Hollywood - The Power Of Love
EXTD=
EXTT0=
EXTT1=
EXTT2=
EXTT3=
EXTT4=
EXTT5=
EXTT6=
EXTT7=
EXTT8=
EXTT9=
EXTT10=
EXTT11=
EXTT12=
EXTT13=
EXTT14=
EXTT15=
EXTT16=
EXTT17=
EXTT18=
EXTT19=
PLAYORDER=
